# xmcd
#
# Track frame offsets:
#	150
#	12172
#	23936
#	38542
#	49944
#	64698
#	78318
#	90405
#	104578
#	115574
#	126319
#	140266
#	153547
#	164381
#
# Disc length: 2514 seconds
#
# Revision: 1
# Processed by: cddbd v1.5.2PL0 Copyright (c) Steve Scherf et al.
# Submitted via: audiograbber 1.82.01
#
DISCID=ab09d00e
DTITLE=ZIM - Zillertaler Musikanten - Boarisch mag a jeder
DYEAR=2007
DGENRE=Volkstümlich
TTITLE0=Oanfach scheidig, oafach ZIM
TTITLE1=I sing des Liadl nur für di
TTITLE2=Josip
TTITLE3=Boarisch mog a jeder
TTITLE4=Doreen
TTITLE5=Ohne Polka geht nix
TTITLE6=Bleib heit Nacht bei mir
TTITLE7=Für di (lass i alles stehn)
TTITLE8=Heut ist ein Ehrentag für dich (Tausend Wünsche)
TTITLE9=I bi koa Superstar
TTITLE10=Bei dir da geh i in die Knia
TTITLE11=Führ mich nicht in Versuchung
TTITLE12=Plan B Polka
TTITLE13=Bed of roses
EXTD=
EXTT0=
EXTT1=
EXTT2=
EXTT3=
EXTT4=
EXTT5=
EXTT6=
EXTT7=
EXTT8=
EXTT9=
EXTT10=
EXTT11=
EXTT12=
EXTT13=
PLAYORDER=
